<?xml version="1.0" encoding="UTF-8"?>
<svg width="24" height="24" viewBox="0 0 24 24" fill="none" xmlns="http://www.w3.org/2000/svg">
  <path d="M11.5 4V2.5H9.5V4H8.5V2.5H6.5V4H4V6H6.5V18H4V20H6.5V21.5H8.5V20H9.5V21.5H11.5V20H13C15.21 20 17 18.21 17 16C17 14.7 16.37 13.537 15.4 12.8C16.37 12.063 17 10.9 17 9.6C17 7.39 15.21 5.6 13 5.6H11.5V4ZM11.5 6H13C14.657 6 16 7.343 16 9C16 10.657 14.657 12 13 12H11.5V6ZM11.5 14H13C14.657 14 16 15.343 16 17C16 18.657 14.657 20 13 20H11.5V14Z" fill="currentColor"/>
</svg>